<svg width="152" height="90" viewBox="0 0 152 90" fill="none" xmlns="http://www.w3.org/2000/svg">
<rect x="0.5" y="0.5" width="151" height="89" rx="24.5" fill="#292526"/>
<rect x="0.5" y="0.5" width="151" height="89" rx="24.5" stroke="white"/>
<path d="M52.8 55V37.24H56.688L62.292 49.708H61.848L67.344 37.24H71.232V55H68.232V40.048H68.928L63.36 52.468H60.672L54.972 40.048H55.8V55H52.8ZM80.8073 55.24C79.2633 55.24 77.9833 55.008 76.9673 54.544C75.9593 54.072 75.2073 53.336 74.7113 52.336C74.2153 51.336 73.9673 50.04 73.9673 48.448C73.9673 46.968 74.1953 45.728 74.6513 44.728C75.1153 43.728 75.7793 42.976 76.6433 42.472C77.5073 41.96 78.5513 41.704 79.7753 41.704C80.9513 41.704 81.9433 41.96 82.7513 42.472C83.5673 42.976 84.1833 43.736 84.5993 44.752C85.0153 45.768 85.2233 47.032 85.2233 48.544V49.396H75.7433V47.5H82.8233L82.2713 47.764C82.2713 46.772 82.1753 45.984 81.9833 45.4C81.7913 44.816 81.5073 44.4 81.1313 44.152C80.7553 43.896 80.2913 43.768 79.7393 43.768C79.1873 43.768 78.7153 43.892 78.3233 44.14C77.9313 44.388 77.6313 44.804 77.4233 45.388C77.2233 45.972 77.1233 46.76 77.1233 47.752V48.976C77.1233 49.92 77.2553 50.676 77.5193 51.244C77.7913 51.804 78.2273 52.208 78.8273 52.456C79.4273 52.696 80.2313 52.816 81.2393 52.816C81.7433 52.816 82.2713 52.776 82.8233 52.696C83.3753 52.616 83.9433 52.504 84.5273 52.36V54.772C83.8553 54.94 83.2153 55.06 82.6073 55.132C82.0073 55.204 81.4073 55.24 80.8073 55.24ZM87.5522 55V41.908H90.1682L90.3842 43.288H90.5402C91.0442 42.776 91.6322 42.384 92.3042 42.112C92.9762 41.84 93.7002 41.704 94.4762 41.704C95.3242 41.704 96.0762 41.868 96.7322 42.196C97.3962 42.524 97.9162 43.052 98.2922 43.78C98.6682 44.5 98.8562 45.464 98.8562 46.672V55H95.7002V46.852C95.7002 45.948 95.5082 45.32 95.1242 44.968C94.7402 44.616 94.2122 44.44 93.5402 44.44C93.2202 44.44 92.8882 44.484 92.5442 44.572C92.2002 44.66 91.8682 44.8 91.5482 44.992C91.2282 45.184 90.9482 45.436 90.7082 45.748V55H87.5522Z" fill="#FDFDFD"/>
</svg>
