<svg width="152" height="90" viewBox="0 0 152 90" fill="none" xmlns="http://www.w3.org/2000/svg">
<rect x="0.5" y="0.5" width="151" height="89" rx="24.5" fill="#292526"/>
<rect x="0.5" y="0.5" width="151" height="89" rx="24.5" stroke="white"/>
<path d="M55.54 55.18C55.052 55.18 54.536 55.168 53.992 55.144C53.448 55.12 52.896 55.084 52.336 55.036C51.784 54.988 51.256 54.928 50.752 54.856V37.6C51.28 37.488 51.84 37.388 52.432 37.3C53.024 37.212 53.632 37.148 54.256 37.108C54.888 37.06 55.52 37.036 56.152 37.036C57.856 37.036 59.248 37.216 60.328 37.576C61.408 37.928 62.2 38.468 62.704 39.196C63.208 39.916 63.46 40.82 63.46 41.908C63.46 42.572 63.336 43.184 63.088 43.744C62.84 44.304 62.464 44.776 61.96 45.16C61.464 45.536 60.84 45.792 60.088 45.928L60.112 45.772C61.336 45.932 62.284 46.38 62.956 47.116C63.628 47.844 63.964 48.828 63.964 50.068C63.964 50.892 63.812 51.624 63.508 52.264C63.204 52.896 62.716 53.428 62.044 53.86C61.38 54.292 60.512 54.62 59.44 54.844C58.376 55.068 57.076 55.18 55.54 55.18ZM56.344 52.792C57.512 52.792 58.432 52.688 59.104 52.48C59.784 52.272 60.264 51.96 60.544 51.544C60.832 51.12 60.976 50.588 60.976 49.948C60.976 48.98 60.672 48.272 60.064 47.824C59.456 47.368 58.476 47.14 57.124 47.14H53.524V44.692H56.764C57.66 44.692 58.376 44.596 58.912 44.404C59.448 44.204 59.836 43.912 60.076 43.528C60.316 43.136 60.436 42.648 60.436 42.064C60.436 41.128 60.14 40.456 59.548 40.048C58.964 39.632 57.964 39.424 56.548 39.424C56.02 39.424 55.544 39.444 55.12 39.484C54.696 39.516 54.284 39.568 53.884 39.64V52.672C54.316 52.72 54.728 52.752 55.12 52.768C55.512 52.784 55.92 52.792 56.344 52.792ZM69.7077 55.228C68.4037 55.228 67.3837 54.892 66.6477 54.22C65.9197 53.54 65.5557 52.64 65.5557 51.52C65.5557 50.32 65.9637 49.384 66.7797 48.712C67.6037 48.032 68.9277 47.624 70.7517 47.488L73.7757 47.2L74.1117 49.024L71.0517 49.3C70.2117 49.38 69.6077 49.58 69.2397 49.9C68.8717 50.22 68.6877 50.66 68.6877 51.22C68.6877 51.788 68.8557 52.224 69.1917 52.528C69.5277 52.832 70.0237 52.984 70.6797 52.984C71.1117 52.984 71.5477 52.9 71.9877 52.732C72.4277 52.564 72.8277 52.284 73.1877 51.892V46.744C73.1877 46.08 73.0797 45.56 72.8637 45.184C72.6557 44.8 72.3197 44.532 71.8557 44.38C71.3997 44.22 70.8037 44.14 70.0677 44.14C69.5717 44.14 69.0077 44.184 68.3757 44.272C67.7437 44.36 67.1277 44.496 66.5277 44.68V42.268C67.1437 42.084 67.8157 41.944 68.5437 41.848C69.2797 41.752 69.9677 41.704 70.6077 41.704C71.8957 41.704 72.9557 41.868 73.7877 42.196C74.6277 42.516 75.2517 43.06 75.6597 43.828C76.0677 44.588 76.2717 45.624 76.2717 46.936V55H73.6677L73.4397 53.644H73.2837C72.8837 54.18 72.3677 54.58 71.7357 54.844C71.1117 55.1 70.4357 55.228 69.7077 55.228ZM85.0909 55.24C83.7069 55.24 82.5349 55 81.5749 54.52C80.6149 54.032 79.8869 53.288 79.3909 52.288C78.8949 51.288 78.6469 50.016 78.6469 48.472C78.6469 46.92 78.9149 45.644 79.4509 44.644C79.9869 43.644 80.7669 42.904 81.7909 42.424C82.8149 41.944 84.0589 41.704 85.5229 41.704C86.0269 41.704 86.5149 41.732 86.9869 41.788C87.4669 41.836 87.9229 41.912 88.3549 42.016V44.548C87.9389 44.46 87.5309 44.392 87.1309 44.344C86.7309 44.296 86.3309 44.272 85.9309 44.272C85.0109 44.272 84.2509 44.412 83.6509 44.692C83.0589 44.964 82.6189 45.408 82.3309 46.024C82.0429 46.632 81.8989 47.436 81.8989 48.436C81.8989 49.46 82.0349 50.284 82.3069 50.908C82.5869 51.532 82.9989 51.984 83.5429 52.264C84.0869 52.536 84.7629 52.672 85.5709 52.672C85.9869 52.672 86.4149 52.636 86.8549 52.564C87.2949 52.484 87.7949 52.364 88.3549 52.204V54.736C87.8669 54.896 87.3429 55.02 86.7829 55.108C86.2309 55.196 85.6669 55.24 85.0909 55.24ZM99.4947 55L94.6467 48.28L99.1467 41.908H102.543L97.8627 48.64V47.8L102.963 55H99.4947ZM93.4707 49.564V47.008H95.8107V49.564H93.4707ZM90.6147 55V35.608H93.7707V55H90.6147Z" fill="#FDFDFD"/>
</svg>
