<svg width="199" height="60" viewBox="0 0 199 60" fill="none" xmlns="http://www.w3.org/2000/svg">
<rect width="199" height="60" rx="30" fill="black"/>
<path d="M76.7399 36V27.53H73.4709V25.64H82.2839V27.53H79.0219V36H76.7399ZM83.307 36V25.871C83.6196 25.801 83.9533 25.7403 84.308 25.689C84.6626 25.633 85.029 25.591 85.407 25.563C85.785 25.5303 86.1653 25.514 86.548 25.514C88.0366 25.514 89.1566 25.7847 89.908 26.326C90.6593 26.8627 91.035 27.7027 91.035 28.846C91.035 29.5833 90.8576 30.2017 90.503 30.701C90.1483 31.1957 89.642 31.569 88.984 31.821C88.3306 32.073 87.549 32.199 86.639 32.199C86.4336 32.199 86.2446 32.1967 86.072 32.192C85.8993 32.1827 85.722 32.1733 85.54 32.164V36H83.307ZM89.404 36L86.072 31.212H88.508L91.889 36H89.404ZM86.681 30.505C87.4323 30.505 87.99 30.3743 88.354 30.113C88.718 29.8517 88.9 29.4293 88.9 28.846C88.9 28.4633 88.823 28.1507 88.669 27.908C88.515 27.6607 88.2816 27.4787 87.969 27.362C87.6563 27.2453 87.2596 27.187 86.779 27.187C86.541 27.187 86.3216 27.1963 86.121 27.215C85.9203 27.2337 85.7266 27.2617 85.54 27.299V30.449C85.6753 30.4583 85.8013 30.47 85.918 30.484C86.0393 30.4933 86.1606 30.5003 86.282 30.505C86.408 30.505 86.541 30.505 86.681 30.505ZM94.7324 36V30.694L95.1944 32.367L90.9944 25.64H93.4094L96.2444 30.218H95.6004L98.4004 25.64H100.64L96.5454 32.367L97.0074 30.729V36H94.7324ZM109.349 36.133C108.364 36.133 107.506 35.9417 106.773 35.559C106.045 35.1763 105.478 34.593 105.072 33.809C104.671 33.0203 104.47 32.024 104.47 30.82C104.47 29.616 104.671 28.622 105.072 27.838C105.478 27.0493 106.045 26.4637 106.773 26.081C107.506 25.6983 108.364 25.507 109.349 25.507C110.334 25.507 111.19 25.7007 111.918 26.088C112.651 26.4707 113.218 27.0563 113.619 27.845C114.025 28.629 114.228 29.6207 114.228 30.82C114.228 32.0193 114.025 33.0133 113.619 33.802C113.218 34.586 112.651 35.1717 111.918 35.559C111.185 35.9417 110.329 36.133 109.349 36.133ZM109.349 34.299C109.881 34.299 110.336 34.1847 110.714 33.956C111.097 33.7227 111.388 33.354 111.589 32.85C111.794 32.346 111.897 31.6857 111.897 30.869C111.897 30.0197 111.794 29.3383 111.589 28.825C111.384 28.307 111.09 27.9313 110.707 27.698C110.329 27.46 109.876 27.341 109.349 27.341C108.822 27.341 108.367 27.4553 107.984 27.684C107.606 27.9127 107.314 28.279 107.109 28.783C106.904 29.287 106.801 29.9497 106.801 30.771C106.801 31.625 106.901 32.311 107.102 32.829C107.307 33.3423 107.599 33.7157 107.977 33.949C108.36 34.1823 108.817 34.299 109.349 34.299ZM115.75 36V25.64H118.032L122.939 33.179H122.547V25.64H124.689V36H122.4L117.5 28.461H117.892V36H115.75Z" fill="#FDFDFD"/>
</svg>
