<svg width="152" height="90" viewBox="0 0 152 90" fill="none" xmlns="http://www.w3.org/2000/svg">
<rect x="0.5" y="0.5" width="151" height="89" rx="24.5" fill="white" fill-opacity="0.25"/>
<rect x="0.5" y="0.5" width="151" height="89" rx="24.5" stroke="white"/>
<path d="M65.22 55L58.476 45.928L64.8 37.24H67.536L60.996 46.216L61.032 45.52L68.04 55H65.22ZM54.396 55V37.24H56.94V55H54.396ZM56.556 47.032V44.764H59.568V47.032H56.556ZM69.3795 55V41.944H71.8875V55H69.3795ZM70.6395 39.4C70.0955 39.4 69.6835 39.272 69.4035 39.016C69.1235 38.76 68.9835 38.408 68.9835 37.96C68.9835 37.496 69.1235 37.136 69.4035 36.88C69.6835 36.624 70.0955 36.496 70.6395 36.496C71.1915 36.496 71.6035 36.624 71.8755 36.88C72.1555 37.136 72.2955 37.496 72.2955 37.96C72.2955 38.408 72.1555 38.76 71.8755 39.016C71.6035 39.272 71.1915 39.4 70.6395 39.4ZM79.8338 55.228C78.8818 55.228 78.0098 55.012 77.2178 54.58C76.4338 54.148 75.8058 53.46 75.3338 52.516C74.8618 51.564 74.6258 50.304 74.6258 48.736C74.6258 47.184 74.8818 45.892 75.3938 44.86C75.9058 43.82 76.6618 43.04 77.6618 42.52C78.6698 42 79.9098 41.74 81.3818 41.74C81.7178 41.74 82.0538 41.756 82.3898 41.788C82.7258 41.812 83.0338 41.844 83.3138 41.884V35.608H85.8218V55H83.6978L83.5418 53.596H83.3978C83.0138 54.076 82.5178 54.468 81.9098 54.772C81.3098 55.076 80.6178 55.228 79.8338 55.228ZM80.4818 53.128C81.0098 53.128 81.5258 53.016 82.0298 52.792C82.5338 52.568 82.9618 52.216 83.3138 51.736V43.924C83.0498 43.86 82.7418 43.812 82.3898 43.78C82.0458 43.74 81.7018 43.72 81.3578 43.72C79.9738 43.72 78.9298 44.092 78.2258 44.836C77.5218 45.58 77.1698 46.812 77.1698 48.532C77.1698 49.716 77.3098 50.644 77.5898 51.316C77.8698 51.98 78.2578 52.448 78.7538 52.72C79.2578 52.992 79.8338 53.128 80.4818 53.128ZM92.5436 55.24C91.8636 55.24 91.2076 55.192 90.5756 55.096C89.9436 55.008 89.3356 54.876 88.7516 54.7V52.768C89.3916 52.952 90.0196 53.092 90.6356 53.188C91.2596 53.276 91.8916 53.32 92.5316 53.32C93.5796 53.32 94.3316 53.152 94.7876 52.816C95.2516 52.48 95.4836 52.008 95.4836 51.4C95.4836 50.888 95.3516 50.5 95.0876 50.236C94.8236 49.964 94.3716 49.76 93.7316 49.624L91.8596 49.252C90.6516 49.004 89.7836 48.584 89.2556 47.992C88.7356 47.392 88.4756 46.608 88.4756 45.64C88.4756 44.496 88.9236 43.56 89.8196 42.832C90.7236 42.104 92.1036 41.74 93.9596 41.74C94.5356 41.74 95.0956 41.776 95.6396 41.848C96.1836 41.912 96.6916 42.008 97.1636 42.136V44.068C96.6436 43.924 96.1276 43.82 95.6156 43.756C95.1036 43.692 94.5716 43.66 94.0196 43.66C93.2196 43.66 92.5876 43.748 92.1236 43.924C91.6676 44.092 91.3396 44.32 91.1396 44.608C90.9476 44.896 90.8516 45.22 90.8516 45.58C90.8516 46.02 90.9756 46.384 91.2236 46.672C91.4796 46.96 91.9236 47.176 92.5556 47.32L94.4276 47.68C95.6196 47.92 96.4876 48.328 97.0316 48.904C97.5836 49.472 97.8596 50.268 97.8596 51.292C97.8596 52.508 97.4036 53.472 96.4916 54.184C95.5876 54.888 94.2716 55.24 92.5436 55.24Z" fill="#292526"/>
</svg>
