<svg width="152" height="90" viewBox="0 0 152 90" fill="none" xmlns="http://www.w3.org/2000/svg">
<rect x="0.5" y="0.5" width="151" height="89" rx="24.5" fill="white" fill-opacity="0.26"/>
<rect x="0.5" y="0.5" width="151" height="89" rx="24.5" stroke="white"/>
<path d="M37.984 55L33.064 37.24H35.668L40.108 53.824H39.472L44.104 37.24H47.02L51.568 53.824H50.98L55.48 37.24H57.916L53.008 55H49.708L45.208 38.824H45.868L41.284 55H37.984ZM64.3244 55.24C63.1484 55.24 62.1244 55 61.2524 54.52C60.3884 54.04 59.7164 53.304 59.2364 52.312C58.7564 51.32 58.5164 50.048 58.5164 48.496C58.5164 46.936 58.7524 45.66 59.2244 44.668C59.6964 43.676 60.3644 42.94 61.2284 42.46C62.1004 41.98 63.1324 41.74 64.3244 41.74C65.5164 41.74 66.5444 41.98 67.4084 42.46C68.2804 42.94 68.9524 43.676 69.4244 44.668C69.8964 45.66 70.1324 46.932 70.1324 48.484C70.1324 50.028 69.8924 51.3 69.4124 52.3C68.9404 53.3 68.2684 54.04 67.3964 54.52C66.5244 55 65.5004 55.24 64.3244 55.24ZM64.3244 53.26C64.9964 53.26 65.5764 53.116 66.0644 52.828C66.5524 52.532 66.9284 52.04 67.1924 51.352C67.4564 50.656 67.5884 49.708 67.5884 48.508C67.5884 47.292 67.4564 46.336 67.1924 45.64C66.9284 44.944 66.5524 44.452 66.0644 44.164C65.5764 43.868 64.9964 43.72 64.3244 43.72C63.6524 43.72 63.0724 43.864 62.5844 44.152C62.0964 44.44 61.7204 44.932 61.4564 45.628C61.1924 46.316 61.0604 47.26 61.0604 48.46C61.0604 49.676 61.1884 50.632 61.4444 51.328C61.7084 52.024 62.0844 52.52 62.5724 52.816C63.0684 53.112 63.6524 53.26 64.3244 53.26ZM72.8639 55V41.944H74.9519L75.1319 43.384H75.2759C75.7639 42.84 76.3239 42.432 76.9559 42.16C77.5959 41.88 78.2799 41.74 79.0079 41.74C79.7519 41.74 80.4159 41.896 80.9999 42.208C81.5839 42.512 82.0439 43.008 82.3799 43.696C82.7159 44.384 82.8839 45.304 82.8839 46.456V55H80.4239V46.648C80.4239 45.624 80.2239 44.916 79.8239 44.524C79.4319 44.132 78.9079 43.936 78.2519 43.936C77.9239 43.936 77.5839 43.992 77.2319 44.104C76.8799 44.208 76.5439 44.376 76.2239 44.608C75.9039 44.84 75.6199 45.144 75.3719 45.52V55H72.8639ZM87.8519 55V46.648C87.8519 45.624 87.6439 44.916 87.2279 44.524C86.8119 44.132 86.2759 43.936 85.6199 43.936C85.2839 43.936 84.9279 43.992 84.5519 44.104C84.1839 44.216 83.8239 44.404 83.4719 44.668C83.1279 44.932 82.8319 45.288 82.5839 45.736L82.0079 43.9C82.6319 43.108 83.3199 42.552 84.0719 42.232C84.8319 41.904 85.5719 41.74 86.2919 41.74C87.0759 41.74 87.7719 41.896 88.3799 42.208C88.9959 42.52 89.4759 43.028 89.8199 43.732C90.1719 44.428 90.3479 45.36 90.3479 46.528V55H87.8519ZM99.4381 55.24C97.9981 55.24 96.7941 55.008 95.8261 54.544C94.8661 54.08 94.1461 53.352 93.6661 52.36C93.1861 51.36 92.9461 50.064 92.9461 48.472C92.9461 46.968 93.1661 45.72 93.6061 44.728C94.0541 43.728 94.6901 42.98 95.5141 42.484C96.3381 41.988 97.3221 41.74 98.4661 41.74C99.5861 41.74 100.534 41.988 101.31 42.484C102.094 42.98 102.686 43.732 103.086 44.74C103.494 45.74 103.698 47.004 103.698 48.532V49.252H94.3381V47.668H101.814L101.334 47.932C101.334 46.828 101.222 45.948 100.998 45.292C100.774 44.636 100.446 44.168 100.014 43.888C99.5821 43.6 99.0581 43.456 98.4421 43.456C97.8261 43.456 97.2941 43.596 96.8461 43.876C96.4061 44.156 96.0661 44.624 95.8261 45.28C95.5861 45.936 95.4661 46.82 95.4661 47.932V48.868C95.4661 49.948 95.6141 50.812 95.9101 51.46C96.2061 52.1 96.6701 52.56 97.3021 52.84C97.9341 53.12 98.7541 53.26 99.7621 53.26C100.258 53.26 100.778 53.22 101.322 53.14C101.866 53.052 102.434 52.928 103.026 52.768V54.736C102.378 54.912 101.762 55.04 101.178 55.12C100.594 55.2 100.014 55.24 99.4381 55.24ZM106.262 55V41.944H108.35L108.53 43.372H108.674C109.186 42.844 109.786 42.44 110.474 42.16C111.17 41.88 111.906 41.74 112.682 41.74C113.514 41.74 114.25 41.896 114.89 42.208C115.538 42.52 116.046 43.028 116.414 43.732C116.782 44.428 116.966 45.36 116.966 46.528V55H114.458V46.66C114.458 45.636 114.238 44.928 113.798 44.536C113.358 44.136 112.758 43.936 111.998 43.936C111.646 43.936 111.274 43.988 110.882 44.092C110.49 44.196 110.11 44.36 109.742 44.584C109.374 44.808 109.05 45.104 108.77 45.472V55H106.262Z" fill="#292526"/>
</svg>
