<svg width="473" height="47" viewBox="0 0 473 47" fill="none" xmlns="http://www.w3.org/2000/svg">
<path d="M0.0880003 36V3.36H10.264C13.4 3.36 15.784 4.192 17.416 5.856C19.08 7.488 19.912 9.68 19.912 12.432V14.976C19.912 17.728 19.08 19.936 17.416 21.6C15.784 23.264 13.4 24.096 10.264 24.096H4.264V36H0.0880003ZM10.264 7.296H4.264V20.208H10.264C11.992 20.208 13.304 19.744 14.2 18.816C15.128 17.888 15.592 16.608 15.592 14.976V12.432C15.592 10.832 15.128 9.584 14.2 8.688C13.304 7.76 11.992 7.296 10.264 7.296ZM44.665 22.656V25.536C44.665 28.928 43.785 31.6 42.025 33.552C40.297 35.504 37.817 36.48 34.585 36.48C31.385 36.48 28.905 35.504 27.145 33.552C25.385 31.6 24.505 28.928 24.505 25.536V22.656C24.505 19.328 25.369 16.688 27.097 14.736C28.857 12.752 31.353 11.76 34.585 11.76C37.817 11.76 40.297 12.752 42.025 14.736C43.785 16.688 44.665 19.328 44.665 22.656ZM40.585 22.656C40.585 20.384 40.073 18.608 39.049 17.328C38.025 16.016 36.537 15.36 34.585 15.36C32.665 15.36 31.177 16.016 30.121 17.328C29.097 18.608 28.585 20.384 28.585 22.656V25.536C28.585 27.904 29.097 29.728 30.121 31.008C31.177 32.288 32.665 32.928 34.585 32.928C36.537 32.928 38.025 32.288 39.049 31.008C40.073 29.728 40.585 27.904 40.585 25.536V22.656ZM80.2863 12.24L74.1903 36H69.6303L64.6383 16.512L59.5023 36H54.9423L48.8943 12.24H52.9263L55.3263 22.176L57.4863 32.016L62.6223 12.24H66.7983L71.9343 32.112L74.0463 22.224L76.3983 12.24H80.2863ZM103.034 34.608C101.594 35.312 100.154 35.792 98.7141 36.048C97.2741 36.336 95.9461 36.48 94.7301 36.48C91.3061 36.48 88.7461 35.504 87.0501 33.552C85.3861 31.6 84.5541 28.928 84.5541 25.536V22.656C84.5541 19.36 85.3861 16.72 87.0501 14.736C88.7461 12.752 91.1301 11.76 94.2021 11.76C95.8341 11.76 97.3221 12.096 98.6661 12.768C100.042 13.408 101.13 14.4 101.93 15.744C102.762 17.056 103.178 18.752 103.178 20.832C103.178 22.176 102.986 23.712 102.602 25.44H88.4421V25.536C88.4421 27.968 88.9381 29.808 89.9301 31.056C90.9541 32.304 92.5861 32.928 94.8261 32.928C95.8501 32.928 96.9701 32.8 98.1861 32.544C99.4341 32.288 100.65 31.888 101.834 31.344L103.034 34.608ZM94.2021 15.216C92.3461 15.216 90.9381 15.824 89.9781 17.04C89.0501 18.224 88.5381 19.904 88.4421 22.08H99.1941C99.2901 21.504 99.3381 20.96 99.3381 20.448C99.3381 18.656 98.8261 17.344 97.8021 16.512C96.8101 15.648 95.6101 15.216 94.2021 15.216ZM122.47 15.696C121.03 15.696 119.622 15.952 118.246 16.464C116.902 16.976 115.462 17.952 113.926 19.392V36H109.99V12.24H113.734V16.08C115.366 14.48 116.854 13.36 118.198 12.72C119.574 12.08 120.998 11.76 122.47 11.76V15.696ZM144.847 34.608C143.407 35.312 141.967 35.792 140.527 36.048C139.087 36.336 137.759 36.48 136.543 36.48C133.119 36.48 130.559 35.504 128.863 33.552C127.199 31.6 126.367 28.928 126.367 25.536V22.656C126.367 19.36 127.199 16.72 128.863 14.736C130.559 12.752 132.943 11.76 136.015 11.76C137.647 11.76 139.135 12.096 140.479 12.768C141.855 13.408 142.943 14.4 143.743 15.744C144.575 17.056 144.991 18.752 144.991 20.832C144.991 22.176 144.799 23.712 144.415 25.44H130.255V25.536C130.255 27.968 130.751 29.808 131.743 31.056C132.767 32.304 134.399 32.928 136.639 32.928C137.663 32.928 138.783 32.8 139.999 32.544C141.247 32.288 142.463 31.888 143.647 31.344L144.847 34.608ZM136.015 15.216C134.159 15.216 132.751 15.824 131.791 17.04C130.863 18.224 130.351 19.904 130.255 22.08H141.007C141.103 21.504 141.151 20.96 141.151 20.448C141.151 18.656 140.639 17.344 139.615 16.512C138.623 15.648 137.423 15.216 136.015 15.216ZM166.25 36V32.688C164.778 34.096 163.434 35.088 162.218 35.664C161.034 36.208 159.802 36.48 158.522 36.48C155.994 36.48 154.042 35.52 152.666 33.6C151.322 31.68 150.65 28.992 150.65 25.536V22.752C150.65 19.392 151.482 16.72 153.146 14.736C154.842 12.752 157.29 11.76 160.49 11.76C161.418 11.76 162.346 11.856 163.274 12.048C164.202 12.24 165.13 12.512 166.058 12.864V0.48H169.994V36H166.25ZM154.73 25.536C154.73 28.032 155.114 29.872 155.882 31.056C156.682 32.208 157.866 32.784 159.434 32.784C160.362 32.784 161.322 32.56 162.314 32.112C163.306 31.632 164.554 30.656 166.058 29.184V16.512C165.13 16.096 164.234 15.808 163.37 15.648C162.506 15.456 161.658 15.36 160.826 15.36C158.65 15.36 157.082 16.016 156.122 17.328C155.194 18.64 154.73 20.448 154.73 22.752V25.536ZM208.127 25.536C208.127 28.864 207.295 31.52 205.631 33.504C203.967 35.488 201.519 36.48 198.287 36.48C195.087 36.48 191.919 35.632 188.783 33.936V0.48H192.719V15.456C194.159 14.112 195.471 13.168 196.655 12.624C197.871 12.048 199.103 11.76 200.351 11.76C202.847 11.76 204.767 12.72 206.111 14.64C207.455 16.56 208.127 19.264 208.127 22.752V25.536ZM199.391 15.456C198.495 15.456 197.535 15.696 196.511 16.176C195.519 16.656 194.255 17.648 192.719 19.152V31.728C194.607 32.528 196.383 32.928 198.047 32.928C200.191 32.928 201.727 32.272 202.655 30.96C203.583 29.616 204.047 27.808 204.047 25.536V22.752C204.047 20.256 203.663 18.416 202.895 17.232C202.127 16.048 200.959 15.456 199.391 15.456ZM223.055 38.4C222.031 41.28 220.767 43.376 219.263 44.688C217.791 46.032 215.727 46.704 213.071 46.704V42.816C214.159 42.784 215.087 42.64 215.855 42.384C216.655 42.128 217.359 41.6 217.967 40.8C218.607 40.032 219.215 38.88 219.791 37.344L220.271 36.144L211.727 12.24H215.759L219.743 23.808L222.191 31.2L224.543 23.808L228.431 12.24H232.319L223.055 38.4ZM253.077 36H248.901V3.36H253.077V36ZM281.435 38.976C281.435 41.312 280.475 43.184 278.555 44.592C276.667 46 274.059 46.704 270.731 46.704C269.067 46.704 267.323 46.48 265.499 46.032C263.707 45.584 262.011 44.864 260.411 43.872L261.755 40.8C263.355 41.696 264.891 42.32 266.363 42.672C267.867 43.056 269.323 43.248 270.731 43.248C272.907 43.248 274.587 42.896 275.771 42.192C276.955 41.488 277.547 40.544 277.547 39.36C277.547 38.496 277.259 37.824 276.683 37.344C276.107 36.896 275.179 36.672 273.899 36.672H268.379C266.299 36.672 264.795 36.176 263.867 35.184C262.939 34.192 262.475 33.104 262.475 31.92C262.475 31.088 262.667 30.272 263.051 29.472C263.435 28.64 263.979 27.824 264.683 27.024C263.563 26.352 262.667 25.44 261.995 24.288C261.323 23.104 260.987 21.68 260.987 20.016C260.987 18.192 261.371 16.672 262.139 15.456C262.939 14.24 263.995 13.328 265.307 12.72C266.619 12.08 268.091 11.76 269.723 11.76H270.539C271.659 11.76 272.683 11.92 273.611 12.24H282.155V15.744L276.971 15.024C277.643 15.6 278.187 16.32 278.603 17.184C279.019 18.016 279.227 19.04 279.227 20.256C279.227 21.984 278.827 23.44 278.027 24.624C277.259 25.808 276.219 26.72 274.907 27.36C273.595 27.968 272.139 28.272 270.539 28.272H269.723C269.307 28.272 268.907 28.256 268.523 28.224C268.139 28.16 267.755 28.096 267.371 28.032C266.443 29.056 265.979 30.064 265.979 31.056C265.979 32.336 266.875 32.976 268.667 32.976H274.043C276.347 32.976 278.155 33.488 279.467 34.512C280.779 35.536 281.435 37.024 281.435 38.976ZM270.539 24.864C271.787 24.864 272.891 24.464 273.851 23.664C274.811 22.864 275.291 21.648 275.291 20.016C275.291 18.416 274.811 17.216 273.851 16.416C272.891 15.584 271.787 15.168 270.539 15.168H269.723C268.443 15.168 267.323 15.584 266.363 16.416C265.403 17.216 264.923 18.416 264.923 20.016C264.923 21.648 265.403 22.864 266.363 23.664C267.323 24.464 268.443 24.864 269.723 24.864H270.539ZM299.845 15.696C298.405 15.696 296.997 15.952 295.621 16.464C294.277 16.976 292.837 17.952 291.301 19.392V36H287.365V12.24H291.109V16.08C292.741 14.48 294.229 13.36 295.573 12.72C296.949 12.08 298.373 11.76 299.845 11.76V15.696ZM309.166 6.432H304.75V2.016H309.166V6.432ZM308.926 36H304.99V12.24H308.926V36ZM323.22 32.976C326.42 32.976 328.02 31.888 328.02 29.712C328.02 28.784 327.732 28.048 327.156 27.504C326.58 26.96 325.524 26.496 323.988 26.112L321.348 25.44C319.396 24.96 317.94 24.128 316.98 22.944C316.02 21.728 315.54 20.288 315.54 18.624C315.54 17.408 315.812 16.288 316.355 15.264C316.9 14.208 317.764 13.36 318.948 12.72C320.132 12.08 321.668 11.76 323.556 11.76C324.772 11.76 326.004 11.904 327.252 12.192C328.532 12.448 329.828 12.896 331.14 13.536L329.892 16.848C327.556 15.792 325.444 15.264 323.556 15.264C320.772 15.264 319.38 16.304 319.38 18.384C319.38 19.184 319.636 19.872 320.148 20.448C320.66 21.024 321.62 21.488 323.028 21.84L325.668 22.512C327.78 23.024 329.332 23.856 330.324 25.008C331.316 26.16 331.812 27.648 331.812 29.472C331.812 30.784 331.524 31.984 330.948 33.072C330.404 34.128 329.508 34.96 328.26 35.568C327.044 36.176 325.396 36.48 323.316 36.48C321.94 36.48 320.564 36.336 319.188 36.048C317.844 35.76 316.452 35.296 315.012 34.656L316.068 31.392C317.444 31.936 318.692 32.336 319.812 32.592C320.932 32.848 322.068 32.976 323.22 32.976ZM354.345 32.976C357.545 32.976 359.145 31.888 359.145 29.712C359.145 28.784 358.857 28.048 358.281 27.504C357.705 26.96 356.649 26.496 355.113 26.112L352.473 25.44C350.521 24.96 349.065 24.128 348.105 22.944C347.145 21.728 346.665 20.288 346.665 18.624C346.665 17.408 346.937 16.288 347.48 15.264C348.025 14.208 348.889 13.36 350.073 12.72C351.257 12.08 352.793 11.76 354.681 11.76C355.897 11.76 357.129 11.904 358.377 12.192C359.657 12.448 360.953 12.896 362.265 13.536L361.017 16.848C358.681 15.792 356.569 15.264 354.681 15.264C351.897 15.264 350.505 16.304 350.505 18.384C350.505 19.184 350.761 19.872 351.273 20.448C351.785 21.024 352.745 21.488 354.153 21.84L356.793 22.512C358.905 23.024 360.457 23.856 361.449 25.008C362.441 26.16 362.937 27.648 362.937 29.472C362.937 30.784 362.649 31.984 362.073 33.072C361.529 34.128 360.633 34.96 359.385 35.568C358.169 36.176 356.521 36.48 354.441 36.48C353.065 36.48 351.689 36.336 350.312 36.048C348.969 35.76 347.577 35.296 346.137 34.656L347.193 31.392C348.569 31.936 349.817 32.336 350.937 32.592C352.057 32.848 353.193 32.976 354.345 32.976ZM382.264 35.136C380.472 36.032 378.568 36.48 376.552 36.48C374.824 36.48 373.464 36.128 372.472 35.424C371.512 34.72 370.824 33.776 370.408 32.592C370.024 31.408 369.832 30.096 369.832 28.656V15.696H365.704V12.24H369.832V5.616H373.768V12.24H381.544V15.696H373.768V28.512C373.768 30.176 374.04 31.328 374.584 31.968C375.16 32.576 376.04 32.88 377.224 32.88C377.8 32.88 378.392 32.816 379 32.688C379.64 32.528 380.328 32.272 381.064 31.92L382.264 35.136ZM402.083 36V32.64C400.419 34.08 398.931 35.088 397.619 35.664C396.307 36.208 394.995 36.48 393.683 36.48C391.571 36.48 389.955 35.792 388.835 34.416C387.715 33.008 387.155 31.04 387.155 28.512V12.24H391.091V27.936C391.091 29.6 391.379 30.832 391.955 31.632C392.563 32.4 393.459 32.784 394.643 32.784C395.539 32.784 396.547 32.56 397.667 32.112C398.787 31.664 400.179 30.768 401.843 29.424V12.24H405.779V36H402.083ZM428.703 36V32.688C427.231 34.096 425.887 35.088 424.671 35.664C423.487 36.208 422.255 36.48 420.975 36.48C418.447 36.48 416.495 35.52 415.119 33.6C413.775 31.68 413.103 28.992 413.103 25.536V22.752C413.103 19.392 413.935 16.72 415.599 14.736C417.295 12.752 419.743 11.76 422.943 11.76C423.871 11.76 424.799 11.856 425.727 12.048C426.655 12.24 427.583 12.512 428.511 12.864V0.48H432.447V36H428.703ZM417.183 25.536C417.183 28.032 417.567 29.872 418.335 31.056C419.135 32.208 420.319 32.784 421.887 32.784C422.815 32.784 423.775 32.56 424.767 32.112C425.759 31.632 427.007 30.656 428.511 29.184V16.512C427.583 16.096 426.687 15.808 425.823 15.648C424.959 15.456 424.111 15.36 423.279 15.36C421.103 15.36 419.535 16.016 418.575 17.328C417.647 18.64 417.183 20.448 417.183 22.752V25.536ZM445.103 6.432H440.687V2.016H445.103V6.432ZM444.863 36H440.927V12.24H444.863V36ZM472.165 22.656V25.536C472.165 28.928 471.285 31.6 469.525 33.552C467.797 35.504 465.317 36.48 462.085 36.48C458.885 36.48 456.405 35.504 454.645 33.552C452.885 31.6 452.005 28.928 452.005 25.536V22.656C452.005 19.328 452.869 16.688 454.597 14.736C456.357 12.752 458.853 11.76 462.085 11.76C465.317 11.76 467.797 12.752 469.525 14.736C471.285 16.688 472.165 19.328 472.165 22.656ZM468.085 22.656C468.085 20.384 467.573 18.608 466.549 17.328C465.525 16.016 464.037 15.36 462.085 15.36C460.165 15.36 458.677 16.016 457.621 17.328C456.597 18.608 456.085 20.384 456.085 22.656V25.536C456.085 27.904 456.597 29.728 457.621 31.008C458.677 32.288 460.165 32.928 462.085 32.928C464.037 32.928 465.525 32.288 466.549 31.008C467.573 29.728 468.085 27.904 468.085 25.536V22.656Z" fill="white"/>
</svg>
